<svg width="64" height="64" viewBox="0 0 64 64" fill="none" xmlns="http://www.w3.org/2000/svg">
<path d="M58 21.6325V14C58 12.9391 57.5786 11.9217 56.8284 11.1716C56.0783 10.4214 55.0609 10 54 10H10C8.93913 10 7.92172 10.4214 7.17157 11.1716C6.42143 11.9217 6 12.9391 6 14V46C6 47.0609 6.42143 48.0783 7.17157 48.8284C7.92172 49.5786 8.93913 50 10 50H40V56C39.9968 56.3526 40.0869 56.6998 40.2612 57.0063C40.4354 57.3129 40.6876 57.5679 40.9922 57.7456C41.2967 57.9232 41.6429 58.0172 41.9955 58.018C42.3481 58.0188 42.6946 57.9263 43 57.75L49 54.315L55 57.75C55.3054 57.9263 55.6519 58.0188 56.0045 58.018C56.3571 58.0172 56.7033 57.9232 57.0078 57.7456C57.3124 57.5679 57.5646 57.3129 57.7388 57.0063C57.9131 56.6998 58.0032 56.3526 58 56V40.3675C59.2643 39.1568 60.2704 37.7027 60.9578 36.0928C61.6451 34.4829 61.9994 32.7505 61.9994 31C61.9994 29.2495 61.6451 27.5171 60.9578 25.9072C60.2704 24.2973 59.2643 22.8432 58 21.6325ZM32 36H18C17.4696 36 16.9609 35.7893 16.5858 35.4142C16.2107 35.0391 16 34.5304 16 34C16 33.4696 16.2107 32.9609 16.5858 32.5858C16.9609 32.2107 17.4696 32 18 32H32C32.5304 32 33.0391 32.2107 33.4142 32.5858C33.7893 32.9609 34 33.4696 34 34C34 34.5304 33.7893 35.0391 33.4142 35.4142C33.0391 35.7893 32.5304 36 32 36ZM32 28H18C17.4696 28 16.9609 27.7893 16.5858 27.4142C16.2107 27.0391 16 26.5304 16 26C16 25.4696 16.2107 24.9609 16.5858 24.5858C16.9609 24.2107 17.4696 24 18 24H32C32.5304 24 33.0391 24.2107 33.4142 24.5858C33.7893 24.9609 34 25.4696 34 26C34 26.5304 33.7893 27.0391 33.4142 27.4142C33.0391 27.7893 32.5304 28 32 28ZM54 52.5525L50 50.2625C49.6978 50.0897 49.3556 49.9989 49.0075 49.9989C48.6594 49.9989 48.3172 50.0897 48.015 50.2625L44.015 52.5525V43C45.5989 43.6618 47.2984 44.0025 49.015 44.0025C50.7316 44.0025 52.4311 43.6618 54.015 43L54 52.5525ZM49 40C47.22 40 45.4799 39.4722 43.9999 38.4832C42.5198 37.4943 41.3663 36.0887 40.6851 34.4441C40.0039 32.7996 39.8257 30.99 40.1729 29.2442C40.5202 27.4984 41.3774 25.8947 42.636 24.636C43.8947 23.3774 45.4984 22.5202 47.2442 22.1729C48.99 21.8257 50.7996 22.0039 52.4441 22.6851C54.0887 23.3663 55.4943 24.5198 56.4832 25.9999C57.4722 27.4799 58 29.22 58 31C58 32.1819 57.7672 33.3522 57.3149 34.4441C56.8626 35.5361 56.1997 36.5282 55.364 37.364C54.5282 38.1997 53.5361 38.8626 52.4441 39.3149C51.3522 39.7672 50.1819 40 49 40Z" fill="#81ACFF"/>
</svg>
