<svg width="64" height="64" viewBox="0 0 64 64" fill="none" xmlns="http://www.w3.org/2000/svg">
<path d="M50 12H34V4C34 3.46957 33.7893 2.96086 33.4142 2.58579C33.0391 2.21071 32.5304 2 32 2C31.4696 2 30.9609 2.21071 30.5858 2.58579C30.2107 2.96086 30 3.46957 30 4V12H14C11.8783 12 9.84344 12.8429 8.34315 14.3431C6.84285 15.8434 6 17.8783 6 20V48C6 50.1217 6.84285 52.1566 8.34315 53.6569C9.84344 55.1571 11.8783 56 14 56H50C52.1217 56 54.1566 55.1571 55.6569 53.6569C57.1571 52.1566 58 50.1217 58 48V20C58 17.8783 57.1571 15.8434 55.6569 14.3431C54.1566 12.8429 52.1217 12 50 12ZM43 24C43.5933 24 44.1734 24.1759 44.6667 24.5056C45.1601 24.8352 45.5446 25.3038 45.7716 25.8519C45.9987 26.4001 46.0581 27.0033 45.9424 27.5853C45.8266 28.1672 45.5409 28.7018 45.1213 29.1213C44.7018 29.5409 44.1672 29.8266 43.5853 29.9424C43.0033 30.0581 42.4001 29.9987 41.852 29.7716C41.3038 29.5446 40.8352 29.1601 40.5056 28.6667C40.1759 28.1734 40 27.5933 40 27C40 26.2044 40.3161 25.4413 40.8787 24.8787C41.4413 24.3161 42.2043 24 43 24ZM24 46H20C18.9391 46 17.9217 45.5786 17.1716 44.8284C16.4214 44.0783 16 43.0609 16 42C16 40.9391 16.4214 39.9217 17.1716 39.1716C17.9217 38.4214 18.9391 38 20 38H24V46ZM21 30C20.4067 30 19.8266 29.8241 19.3333 29.4944C18.8399 29.1648 18.4554 28.6962 18.2284 28.1481C18.0013 27.5999 17.9419 26.9967 18.0576 26.4147C18.1734 25.8328 18.4591 25.2982 18.8787 24.8787C19.2982 24.4591 19.8328 24.1734 20.4147 24.0576C20.9967 23.9419 21.5999 24.0013 22.1481 24.2284C22.6962 24.4554 23.1648 24.8399 23.4944 25.3333C23.8241 25.8266 24 26.4067 24 27C24 27.7956 23.6839 28.5587 23.1213 29.1213C22.5587 29.6839 21.7956 30 21 30ZM36 46H28V38H36V46ZM44 46H40V38H44C45.0609 38 46.0783 38.4214 46.8284 39.1716C47.5786 39.9217 48 40.9391 48 42C48 43.0609 47.5786 44.0783 46.8284 44.8284C46.0783 45.5786 45.0609 46 44 46Z" fill="#81ACFF"/>
</svg>
