<svg width="64" height="64" viewBox="0 0 64 64" fill="none" xmlns="http://www.w3.org/2000/svg">
<path d="M58 52C58 52.5304 57.7893 53.0391 57.4142 53.4142C57.0391 53.7893 56.5304 54 56 54H8C7.46957 54 6.96086 53.7893 6.58579 53.4142C6.21071 53.0391 6 52.5304 6 52C6 51.4696 6.21071 50.9609 6.58579 50.5858C6.96086 50.2107 7.46957 50 8 50H56C56.5304 50 57.0391 50.2107 57.4142 50.5858C57.7893 50.9609 58 51.4696 58 52ZM58 14V42C58 43.0609 57.5786 44.0783 56.8284 44.8284C56.0783 45.5786 55.0609 46 54 46H10C8.93913 46 7.92172 45.5786 7.17157 44.8284C6.42143 44.0783 6 43.0609 6 42V14C6 12.9391 6.42143 11.9217 7.17157 11.1716C7.92172 10.4214 8.93913 10 10 10H54C55.0609 10 56.0783 10.4214 56.8284 11.1716C57.5786 11.9217 58 12.9391 58 14ZM41 28C40.9999 27.6786 40.9224 27.362 40.774 27.077C40.6256 26.792 40.4107 26.5469 40.1475 26.3625L30.1475 19.3625C29.8478 19.1526 29.4963 19.0289 29.1313 19.0049C28.7662 18.9809 28.4015 19.0575 28.0769 19.2263C27.7524 19.3952 27.4803 19.6498 27.2904 19.9626C27.1006 20.2753 27.0001 20.6341 27 21V35C27.0001 35.3659 27.1006 35.7247 27.2904 36.0374C27.4803 36.3502 27.7524 36.6048 28.0769 36.7737C28.4015 36.9425 28.7662 37.0191 29.1313 36.9951C29.4963 36.9711 29.8478 36.8474 30.1475 36.6375L40.1475 29.6375C40.4107 29.4531 40.6256 29.208 40.774 28.923C40.9224 28.638 40.9999 28.3214 41 28Z" fill="#81ACFF"/>
</svg>
