<svg width="75" height="51" viewBox="0 0 75 51" fill="none" xmlns="http://www.w3.org/2000/svg">
<rect width="75" height="51" rx="8" fill="#F6F6F6"/>
<rect width="75" height="51" rx="8" fill="#F6F6F6"/>
<g clip-path="url(#clip0_2001_1350)" filter="url(#filter0_d_2001_1350)">
<path d="M49.1667 12.375H25.8333C24.2146 12.375 22.9167 13.6729 22.9167 15.2917V32.7917C22.9167 34.3958 24.2146 35.7083 25.8333 35.7083H31.6667V38.625H43.3333V35.7083H49.1667C50.7708 35.7083 52.0833 34.3958 52.0833 32.7917V15.2917C52.0833 13.6729 50.7708 12.375 49.1667 12.375ZM49.1667 32.7917H25.8333V15.2917H49.1667V32.7917Z" fill="#000FD9"/>
<path d="M29.4792 18.9375H33.125V16.75H27.2917V22.5833H29.4792V18.9375Z" fill="#000FD9"/>
<path d="M47.7083 25.5H45.5208V29.1458H41.875V31.3333H47.7083V25.5Z" fill="#000FD9"/>
</g>
<defs>
<filter id="filter0_d_2001_1350" x="16" y="8" width="43" height="43" filterUnits="userSpaceOnUse" color-interpolation-filters="sRGB">
<feFlood flood-opacity="0" result="BackgroundImageFix"/>
<feColorMatrix in="SourceAlpha" type="matrix" values="0 0 0 0 0 0 0 0 0 0 0 0 0 0 0 0 0 0 127 0" result="hardAlpha"/>
<feOffset dy="4"/>
<feGaussianBlur stdDeviation="2"/>
<feComposite in2="hardAlpha" operator="out"/>
<feColorMatrix type="matrix" values="0 0 0 0 0 0 0 0 0 0 0 0 0 0 0 0 0 0 0.25 0"/>
<feBlend mode="normal" in2="BackgroundImageFix" result="effect1_dropShadow_2001_1350"/>
<feBlend mode="normal" in="SourceGraphic" in2="effect1_dropShadow_2001_1350" result="shape"/>
</filter>
<clipPath id="clip0_2001_1350">
<rect width="35" height="35" fill="white" transform="translate(20 8)"/>
</clipPath>
</defs>
</svg>
