<svg width="65" height="64" viewBox="0 0 65 64" fill="none" xmlns="http://www.w3.org/2000/svg">
<path d="M24.1027 49.4933C24.1027 49.4933 21.6573 50.9173 25.844 51.3973C30.916 51.9787 33.508 51.896 39.0947 50.8347C39.0947 50.8347 40.5667 51.7573 42.6173 52.5573C30.0867 57.9253 14.2627 52.2427 24.1027 49.4933ZM22.5693 42.488C22.5693 42.488 19.828 44.5173 24.0147 44.952C29.4333 45.5093 33.7107 45.5573 41.116 44.1307C41.116 44.1307 42.14 45.168 43.748 45.736C28.604 50.1653 11.7293 46.0827 22.5693 42.488ZM35.476 30.6C38.564 34.1547 34.6653 37.3547 34.6653 37.3547C34.6653 37.3547 42.5027 33.3067 38.9027 28.24C35.54 23.5147 32.9613 21.168 46.9213 13.072C46.9213 13.0693 25.012 18.5413 35.476 30.6ZM52.0467 54.6773C52.0467 54.6773 53.8573 56.168 50.0547 57.32C42.8227 59.512 19.9533 60.1707 13.604 57.408C11.3213 56.4133 15.604 55.0347 16.948 54.7467C18.3533 54.4427 19.156 54.4987 19.156 54.4987C16.6147 52.7093 2.74 58.0107 12.108 59.5307C37.6547 63.672 58.6733 57.664 52.0467 54.6773ZM25.2787 35.2267C25.2787 35.2267 13.6467 37.9893 21.1613 38.992C24.332 39.416 30.6573 39.32 36.548 38.8267C41.364 38.4213 46.196 37.5547 46.196 37.5547C46.196 37.5547 44.4973 38.28 43.268 39.12C31.4573 42.2267 8.63867 40.7813 15.2093 37.6053C20.7613 34.9227 25.2787 35.2267 25.2787 35.2267ZM46.1427 46.8907C58.1507 40.6507 52.5987 34.6533 48.724 35.464C47.7773 35.6613 47.3507 35.832 47.3507 35.832C47.3507 35.832 47.7027 35.28 48.3773 35.04C56.044 32.344 61.94 42.9893 45.9027 47.2053C45.9027 47.2027 46.0893 47.04 46.1427 46.8907ZM38.9027 0C38.9027 0 45.5533 6.65067 32.596 16.88C22.2067 25.0853 30.228 29.7653 32.5933 35.1093C26.5293 29.6347 22.0787 24.8213 25.0627 20.3387C29.4467 13.7547 41.588 10.5653 38.9027 0ZM26.4573 63.7973C37.9827 64.536 55.6813 63.3893 56.1 57.936C56.1 57.936 55.2947 60.0027 46.5747 61.6453C36.74 63.496 24.604 63.28 17.4093 62.0933C17.4093 62.0907 18.884 63.312 26.4573 63.7973Z" fill="#F6F6F6"/>
</svg>
