<svg width="65" height="64" viewBox="0 0 65 64" fill="none" xmlns="http://www.w3.org/2000/svg">
<path d="M4.5 4V60H60.5V4H4.5ZM34.5 47.5C34.5 52.9512 31.28 55.6087 26.6187 55.6087C22.4087 55.6087 19.965 53.4287 18.725 50.7975L23.01 48.2038C23.8363 49.67 24.4637 50.91 26.2675 50.91C27.7675 50.91 29 50.2337 29 47.6025V30H34.5V47.5ZM46.9188 55.4837C42.0325 55.4837 38.875 53.2787 37.3338 50.2337L41.625 47.75C42.75 49.5925 44.2188 50.82 46.8125 50.82C48.9925 50.82 50.2588 49.855 50.2588 48.3512C50.2588 46.5475 48.955 45.9087 46.5488 44.8512L45.2337 44.2863C41.4362 42.6712 38.9188 40.6413 38.9188 36.355C38.9188 32.4087 41.925 29.5263 46.6237 29.5263C49.97 29.5263 52.3737 30.5663 54.105 33.6113L50 36.25C49.0975 34.6338 48.125 34 46.6175 34C45.0763 34 44.0988 34.9775 44.0988 36.25C44.0988 37.8288 45.0762 38.4675 47.3312 39.445L48.6463 40.0088C53.12 41.9263 55.6387 43.8838 55.6387 48.2788C55.64 53.0163 51.9188 55.4837 46.9188 55.4837Z" fill="#F6F6F6"/>
</svg>
