<svg width="65" height="64" viewBox="0 0 65 64" fill="none" xmlns="http://www.w3.org/2000/svg">
<path d="M46.1747 0C43.688 0.0184972 41.2158 0.380132 38.828 1.07467L38.66 1.128C37.1539 0.861834 35.6292 0.714712 34.1 0.688C30.9587 0.634667 28.26 1.39733 26.084 2.66667C23.94 1.92267 19.492 0.64 14.804 0.896C11.54 1.07467 7.97733 2.06667 5.33733 4.85333C2.70533 7.64 1.31333 11.952 1.60666 17.8187C1.68666 19.4373 2.14799 22.0773 2.91333 25.496C3.67866 28.9147 4.75333 32.9173 6.09466 36.568C7.43599 40.2213 8.90533 43.5013 11.2013 45.7307C12.348 46.848 13.9267 47.7867 15.788 47.7093C17.0947 47.656 18.276 47.0827 19.2947 46.2373C19.7907 46.8907 20.3213 47.176 20.804 47.44C21.412 47.7733 22.004 48 22.6173 48.1493C23.7187 48.424 25.604 48.792 27.812 48.416C28.564 48.2907 29.356 48.0453 30.1453 47.696C30.1747 48.576 30.2093 49.4373 30.244 50.3093C30.3533 53.072 30.4227 55.624 31.252 57.8613C31.3853 58.2267 31.7507 60.1093 33.1907 61.7707C34.6307 63.4347 37.452 64.472 40.6653 63.784C42.932 63.2987 45.8147 62.424 47.7293 59.6987C49.6227 57.0053 50.476 53.1413 50.644 46.8747C50.6867 46.536 50.7373 46.248 50.7907 45.9787L51.2413 46.0187H51.2947C53.7133 46.128 56.3373 45.784 58.5293 44.7653C60.4707 43.8667 61.94 42.9573 63.0093 41.344C63.276 40.944 63.5693 40.4613 63.6493 39.6293C63.7293 38.7973 63.252 37.496 62.46 36.896C60.8733 35.6907 59.876 36.1493 58.8067 36.3707C57.7533 36.6035 56.6798 36.7339 55.6013 36.76C58.684 31.568 60.8947 26.0533 62.156 21.1733C62.9027 18.2933 63.3213 15.6373 63.356 13.3147C63.3907 10.992 63.2013 8.936 61.8093 7.15733C57.46 1.6 51.3453 0.064 46.6147 0.0106667C46.468 0.008 46.3213 0.00533333 46.1747 0.008V0ZM46.0493 1.70667C50.524 1.664 56.2413 2.92 60.3453 8.16533C61.268 9.344 61.5427 11.0667 61.5107 13.1893C61.476 15.3093 61.084 17.848 60.3667 20.6293C58.9747 26.016 56.3453 32.296 52.6413 37.9307C52.7721 38.0236 52.9136 38.1006 53.0627 38.16C53.836 38.48 55.5987 38.7547 59.116 38.032C60.0013 37.8453 60.6493 37.72 61.3213 38.232C61.4846 38.3704 61.6137 38.5448 61.6983 38.7414C61.783 38.938 61.821 39.1516 61.8093 39.3653C61.7734 39.689 61.654 39.9978 61.4627 40.2613C60.7827 41.2827 59.4413 42.2507 57.7213 43.048C56.1987 43.7573 54.0147 44.128 52.0787 44.1493C51.108 44.16 50.212 44.0853 49.452 43.848L49.404 43.8293C49.1107 46.656 48.436 52.2373 47.996 54.784C47.644 56.8373 47.028 58.4693 45.852 59.6907C44.6787 60.912 43.0173 61.648 40.7827 62.128C38.0147 62.7227 35.996 62.0827 34.6947 60.9867C33.396 59.8933 32.8013 58.4427 32.444 57.5547C32.1987 56.9413 32.0707 56.1467 31.948 55.0853C31.8253 54.024 31.7347 52.7253 31.6733 51.2613C31.5916 49.0197 31.565 46.7763 31.5933 44.5333C30.4371 45.5924 29.0002 46.296 27.4547 46.56C25.6173 46.872 23.9773 46.5653 22.9987 46.32C22.5162 46.1988 22.0505 46.0188 21.612 45.784C21.1587 45.5413 20.7267 45.2667 20.4387 44.7253C20.2694 44.4153 20.2156 44.0553 20.2867 43.7093C20.3768 43.3586 20.5814 43.048 20.868 42.8267C21.396 42.3973 22.0947 42.1573 23.148 41.9387C25.0653 41.544 25.7347 41.2747 26.1427 40.952C26.4893 40.6747 26.8813 40.1147 27.5747 39.2933C27.5713 39.2569 27.5687 39.2205 27.5667 39.184C26.3258 39.1491 25.1107 38.822 24.02 38.2293C23.62 38.6507 21.5773 40.8107 19.0867 43.808C18.0387 45.0613 16.8813 45.7813 15.66 45.832C14.4387 45.8853 13.3347 45.2693 12.396 44.36C10.5213 42.5387 9.02533 39.4053 7.72133 35.864C6.41999 32.3227 5.36133 28.3787 4.60933 25.0187C3.85466 21.6587 3.40933 18.9493 3.34533 17.6427C3.06533 12.0907 4.36399 8.34933 6.59066 5.98933C8.81999 3.62933 11.876 2.736 14.8547 2.56533C20.2013 2.25867 25.2787 4.12267 26.3053 4.52267C28.284 3.17867 30.8333 2.34133 34.0173 2.39467C35.5289 2.41587 37.033 2.61093 38.5 2.976L38.5533 2.952C39.199 2.72503 39.8569 2.53451 40.524 2.38133C42.3352 1.95881 44.187 1.73438 46.0467 1.712L46.0493 1.70667ZM46.4547 3.49333H46.0653C44.5375 3.51464 43.0155 3.68613 41.5213 4.00533C44.844 5.47733 47.3533 7.744 49.1213 10.0053C50.3495 11.571 51.3645 13.2927 52.14 15.1253C52.4333 15.8293 52.6307 16.424 52.7427 16.8853C52.7987 17.1173 52.836 17.312 52.8493 17.5147C52.8547 17.616 52.86 17.72 52.8173 17.8987C52.8173 17.9067 52.804 17.9253 52.8013 17.9333C52.8813 20.2693 52.3027 21.8533 52.2333 24.0827C52.18 25.6987 52.5933 27.5973 52.6947 29.6693C52.7907 31.616 52.556 33.7547 51.292 35.8533C51.3987 35.9813 51.4947 36.1093 51.596 36.2373C54.94 30.9707 57.3507 25.144 58.636 20.176C59.324 17.5013 59.6893 15.0773 59.7213 13.1573C59.748 11.2373 59.3907 9.84533 58.9347 9.264C55.356 4.688 50.5133 3.52533 46.4547 3.49333ZM33.6813 4.176C30.5293 4.184 28.268 5.136 26.5533 6.56267C24.7853 8.03733 23.5987 10.056 22.82 12.1227C21.8947 14.576 21.5773 16.9493 21.452 18.56L21.4867 18.5387C22.4387 18.0053 23.6893 17.472 25.028 17.1627C26.3667 16.856 27.8093 16.76 29.116 17.2667C30.4227 17.7733 31.5027 18.9653 31.8947 20.7733C33.772 29.4587 31.3107 32.688 30.404 35.1253C30.06 36.0088 29.7654 36.9106 29.5213 37.8267C29.636 37.8 29.7507 37.768 29.8653 37.7573C30.5053 37.704 31.0067 37.9173 31.3053 38.0453C32.2173 38.424 32.844 39.2187 33.1827 40.1253C33.2707 40.3627 33.3347 40.6187 33.372 40.8827C33.4114 40.9911 33.4295 41.1061 33.4253 41.2213C33.3242 44.5434 33.3358 47.868 33.46 51.1893C33.5213 52.624 33.612 53.888 33.7267 54.8853C33.8413 55.88 34.004 56.6373 34.108 56.8933C34.4493 57.7467 34.948 58.864 35.8493 59.624C36.7507 60.3813 38.044 60.888 40.4067 60.3813C42.4547 59.9413 43.7187 59.3307 44.564 58.4533C45.4067 57.576 45.9107 56.3547 46.2333 54.4853C46.716 51.6853 47.6867 43.5653 47.804 42.0373C47.7507 40.8853 47.9213 40 48.2893 39.3253C48.668 38.632 49.2547 38.208 49.7613 37.9787C50.0147 37.864 50.252 37.7867 50.4467 37.7307C50.2406 37.4345 50.0244 37.1454 49.7987 36.864C49.0682 35.9781 48.47 34.9909 48.0227 33.9333C47.8084 33.4966 47.5799 33.067 47.3373 32.6453C46.9827 32.0053 46.5347 31.2053 46.0653 30.3067C45.1267 28.5067 44.1053 26.3253 43.5747 24.2C43.0467 22.0773 42.9693 19.88 44.324 18.3307C45.524 16.9547 47.6307 16.384 50.7933 16.704C50.7 16.424 50.644 16.192 50.4867 15.8187C49.7717 14.1357 48.8383 12.5541 47.7107 11.1147C45.0307 7.688 40.692 4.29067 33.988 4.18133H33.6813V4.176ZM15.9693 4.31467C15.6307 4.31467 15.292 4.32533 14.956 4.344C12.2627 4.49867 9.71599 5.28 7.89466 7.21067C6.07066 9.14133 4.87066 12.3067 5.13199 17.5467C5.18266 18.5387 5.61466 21.3173 6.35599 24.6187C7.09466 27.92 8.14266 31.8053 9.40133 35.2373C10.6627 38.6693 12.1907 41.656 13.6413 43.0693C14.372 43.776 15.0067 44.0613 15.5827 44.0373C16.1613 44.0107 16.8573 43.6773 17.708 42.656C19.2589 40.7852 20.8686 38.9638 22.5347 37.1947C21.3525 36.1683 20.4479 34.8608 19.904 33.3928C19.3601 31.9248 19.1946 30.3435 19.4227 28.7947C19.6973 26.824 19.7347 24.9813 19.7027 23.5253C19.6707 22.1067 19.5693 21.1627 19.5693 20.5733C19.5688 20.5564 19.5688 20.5396 19.5693 20.5227V20.5093L19.5667 20.4933C19.5651 17.4234 20.0993 14.3742 21.1453 11.488C21.892 9.504 23.004 7.488 24.6707 5.856C23.0333 5.31733 20.1267 4.496 16.98 4.34133C16.6425 4.324 16.3073 4.31511 15.9693 4.31467ZM49.0307 18.4C47.22 18.424 46.204 18.8907 45.6707 19.5013C44.916 20.368 44.844 21.888 45.3133 23.76C45.78 25.6347 46.7453 27.7307 47.652 29.472C48.1053 30.344 48.5453 31.128 48.9 31.7653C49.2573 32.4053 49.5187 32.8587 49.6787 33.2453C49.8253 33.6027 49.988 33.9173 50.1533 34.2107C50.8547 32.7307 50.98 31.2773 50.908 29.7627C50.8147 27.888 50.38 25.9707 50.444 24.0293C50.516 21.76 50.964 20.2827 51.004 18.528C50.3496 18.4432 49.6905 18.4005 49.0307 18.4ZM27.0733 18.7067C26.5202 18.7118 25.9693 18.778 25.4307 18.904C24.3572 19.1648 23.3232 19.5675 22.356 20.1013C22.0288 20.2768 21.7175 20.4802 21.4253 20.7093L21.3667 20.7627C21.3827 21.152 21.46 22.096 21.492 23.4853C21.524 25.0053 21.4867 26.944 21.1933 29.0427C20.556 33.6027 23.8653 37.3787 27.7533 37.384C27.98 36.448 28.3533 35.4987 28.7267 34.4987C29.8093 31.5813 31.94 29.4533 30.1453 21.1493C29.852 19.7893 29.2707 19.24 28.4707 18.9307C28.0223 18.7721 27.5488 18.6962 27.0733 18.7067ZM48.1853 19.2507H48.3187C48.4947 19.256 48.6573 19.2747 48.7987 19.3093C48.9427 19.3413 49.0653 19.3893 49.1667 19.456C49.2187 19.4882 49.2633 19.5309 49.2978 19.5815C49.3322 19.632 49.3557 19.6892 49.3667 19.7493L49.364 19.7707C49.3692 19.8973 49.3367 20.0225 49.2707 20.1307C49.192 20.277 49.0933 20.4117 48.9773 20.5307C48.7068 20.8286 48.3445 21.0275 47.948 21.096C47.5621 21.1426 47.1727 21.0448 46.8547 20.8213C46.7245 20.7338 46.6077 20.6278 46.508 20.5067C46.4217 20.4115 46.3635 20.2943 46.34 20.168C46.3344 20.1065 46.3415 20.0445 46.3607 19.9858C46.38 19.9271 46.4111 19.8729 46.452 19.8267C46.5395 19.7272 46.6455 19.6457 46.764 19.5867C47.02 19.4427 47.3667 19.336 47.7587 19.2773C47.9053 19.256 48.0493 19.2453 48.1853 19.2427V19.2507ZM27.332 19.6987C27.4733 19.6987 27.6227 19.712 27.7747 19.7333C28.1827 19.7893 28.5453 19.8987 28.8227 20.0587C28.9579 20.1293 29.0783 20.2252 29.1773 20.3413C29.2312 20.4029 29.2718 20.475 29.2966 20.553C29.3214 20.631 29.3298 20.7133 29.3213 20.7947C29.2957 20.948 29.2262 21.0906 29.1213 21.2053C29.0122 21.3393 28.8837 21.4561 28.74 21.552C28.3932 21.7977 27.9672 21.9051 27.5453 21.8533C27.1142 21.7825 26.7196 21.5683 26.4253 21.2453C26.3001 21.1153 26.1942 20.968 26.1107 20.808C26.0228 20.6672 25.9843 20.5011 26.0013 20.336C26.0413 20.048 26.2787 19.8987 26.5107 19.816C26.7749 19.7316 27.0522 19.6954 27.3293 19.7093L27.332 19.6987ZM51.492 39.28L51.484 39.2827C51.092 39.424 50.7693 39.4827 50.4973 39.6027C50.2223 39.7086 49.9955 39.9116 49.86 40.1733C49.692 40.48 49.548 41.024 49.5907 41.9493C49.7113 42.0324 49.8446 42.0954 49.9853 42.136C50.4413 42.2747 51.2067 42.3653 52.06 42.352C53.7613 42.3333 55.8547 41.936 56.9667 41.4187C57.8789 40.9949 58.7257 40.4426 59.4813 39.7787C55.7667 40.5467 53.6653 40.3413 52.3773 39.8107C52.0575 39.6776 51.7591 39.5005 51.492 39.28ZM30.076 39.5307H30.02C29.8787 39.544 29.6733 39.592 29.276 40.032C28.348 41.072 28.0227 41.7253 27.2573 42.336C26.492 42.944 25.4973 43.2693 23.5107 43.6773C22.8813 43.8053 22.5213 43.9467 22.2813 44.0613C22.3587 44.1253 22.3507 44.1413 22.468 44.2027C22.7587 44.3627 23.132 44.504 23.4333 44.5813C24.2867 44.7947 25.6893 45.0427 27.1533 44.7947C28.6173 44.544 30.14 43.8427 31.4387 42.0213C31.6627 41.7067 31.6867 41.2427 31.5027 40.744C31.316 40.2453 30.908 39.816 30.62 39.696C30.4486 39.6133 30.2648 39.5592 30.076 39.536V39.5307Z" fill="#F6F6F6"/>
</svg>
