<svg width="129" height="128" viewBox="0 0 129 128" fill="none" xmlns="http://www.w3.org/2000/svg">
<path d="M0.5 0V128H128.5V0H0.5ZM69.0714 99.4286C69.0714 111.889 61.7114 117.963 51.0571 117.963C41.4343 117.963 35.8486 112.98 33.0143 106.966L42.8086 101.037C44.6971 104.389 46.1314 107.223 50.2543 107.223C53.6829 107.223 56.5 105.677 56.5 99.6629V59.4286H69.0714V99.4286ZM97.4571 117.677C86.2886 117.677 79.0714 112.637 75.5486 105.677L85.3571 100C87.9286 104.211 91.2857 107.017 97.2143 107.017C102.197 107.017 105.091 104.811 105.091 101.374C105.091 97.2514 102.111 95.7914 96.6114 93.3743L93.6057 92.0829C84.9257 88.3914 79.1714 83.7514 79.1714 73.9543C79.1714 64.9343 86.0429 58.3457 96.7829 58.3457C104.431 58.3457 109.926 60.7229 113.883 67.6829L104.5 73.7143C102.437 70.02 100.214 68.5714 96.7686 68.5714C93.2457 68.5714 91.0114 70.8057 91.0114 73.7143C91.0114 77.3229 93.2457 78.7829 98.4 81.0171L101.406 82.3057C111.631 86.6886 117.389 91.1629 117.389 101.209C117.391 112.037 108.886 117.677 97.4571 117.677Z" fill="#000FD9"/>
</svg>
