<svg width="129" height="128" viewBox="0 0 129 128" fill="none" xmlns="http://www.w3.org/2000/svg">
<path d="M47.7053 98.9867C47.7053 98.9867 42.8146 101.835 51.188 102.795C61.332 103.957 66.516 103.792 77.6893 101.669C77.6893 101.669 80.6333 103.515 84.7346 105.115C59.6733 115.851 28.0253 104.485 47.7053 98.9867ZM44.6386 84.976C44.6386 84.976 39.156 89.0347 47.5293 89.904C58.3666 91.0187 66.9213 91.1147 81.732 88.2613C81.732 88.2613 83.78 90.336 86.996 91.472C56.708 100.331 22.9586 92.1653 44.6386 84.976ZM70.452 61.2C76.628 68.3093 68.8306 74.7093 68.8306 74.7093C68.8306 74.7093 84.5053 66.6133 77.3053 56.48C70.58 47.0293 65.4226 42.336 93.3426 26.144C93.3426 26.1387 49.524 37.0827 70.452 61.2ZM103.593 109.355C103.593 109.355 107.215 112.336 99.6093 114.64C85.1453 119.024 39.4066 120.341 26.708 114.816C22.1426 112.827 30.708 110.069 33.396 109.493C36.2066 108.885 37.812 108.997 37.812 108.997C32.7293 105.419 4.97996 116.021 23.716 119.061C74.8093 127.344 116.847 115.328 103.593 109.355ZM50.0573 70.4533C50.0573 70.4533 26.7933 75.9787 41.8226 77.984C48.164 78.832 60.8146 78.64 72.596 77.6533C82.228 76.8427 91.892 75.1093 91.892 75.1093C91.892 75.1093 88.4946 76.56 86.036 78.24C62.4146 84.4533 16.7773 81.5627 29.9186 75.2107C41.0226 69.8453 50.0573 70.4533 50.0573 70.4533ZM91.7853 93.7813C115.801 81.3013 104.697 69.3067 96.948 70.928C95.0546 71.3227 94.2013 71.664 94.2013 71.664C94.2013 71.664 94.9053 70.56 96.2546 70.08C111.588 64.688 123.38 85.9787 91.3053 94.4107C91.3053 94.4053 91.6786 94.08 91.7853 93.7813ZM77.3053 0C77.3053 0 90.6066 13.3013 64.692 33.76C43.9133 50.1707 59.956 59.5307 64.6866 70.2187C52.5586 59.2693 43.6573 49.6427 49.6253 40.6773C58.3933 27.5093 82.676 21.1307 77.3053 0ZM52.4146 127.595C75.4653 129.072 110.863 126.779 111.7 115.872C111.7 115.872 110.089 120.005 92.6493 123.291C72.98 126.992 48.708 126.56 34.3186 124.187C34.3186 124.181 37.268 126.624 52.4146 127.595Z" fill="#000FD9"/>
</svg>
