<svg width="128" height="128" viewBox="0 0 128 128" fill="none" xmlns="http://www.w3.org/2000/svg">
<path d="M91.3494 0C86.3761 0.0369944 81.4316 0.760264 76.6561 2.14933L76.3201 2.256C73.3079 1.72367 70.2585 1.42942 67.2001 1.376C60.9174 1.26933 55.5201 2.79467 51.1681 5.33333C46.8801 3.84533 37.9841 1.28 28.6081 1.792C22.0801 2.14933 14.9547 4.13333 9.67474 9.70667C4.41074 15.28 1.62674 23.904 2.21341 35.6373C2.37341 38.8747 3.29608 44.1547 4.82674 50.992C6.35741 57.8293 8.50674 65.8347 11.1894 73.136C13.8721 80.4427 16.8107 87.0027 21.4027 91.4613C23.6961 93.696 26.8534 95.5733 30.5761 95.4187C33.1894 95.312 35.5521 94.1653 37.5894 92.4747C38.5814 93.7813 39.6427 94.352 40.6081 94.88C41.8241 95.5467 43.0081 96 44.2347 96.2987C46.4374 96.848 50.2081 97.584 54.6241 96.832C56.1281 96.5813 57.7121 96.0907 59.2907 95.392C59.3494 97.152 59.4187 98.8747 59.4881 100.619C59.7067 106.144 59.8454 111.248 61.5041 115.723C61.7707 116.453 62.5014 120.219 65.3814 123.541C68.2614 126.869 73.9041 128.944 80.3307 127.568C84.8641 126.597 90.6294 124.848 94.4588 119.397C98.2454 114.011 99.9521 106.283 100.288 93.7493C100.373 93.072 100.475 92.496 100.581 91.9573L101.483 92.0373H101.589C106.427 92.256 111.675 91.568 116.059 89.5307C119.941 87.7333 122.88 85.9147 125.019 82.688C125.552 81.888 126.139 80.9227 126.299 79.2587C126.459 77.5947 125.504 74.992 123.92 73.792C120.747 71.3813 118.752 72.2987 116.613 72.7413C114.507 73.2071 112.36 73.4679 110.203 73.52C116.368 63.136 120.789 52.1067 123.312 42.3467C124.805 36.5867 125.643 31.2747 125.712 26.6293C125.781 21.984 125.403 17.872 122.619 14.3147C113.92 3.2 101.691 0.128 92.2294 0.0213333C91.9361 0.016 91.6428 0.0106667 91.3494 0.016V0ZM91.0987 3.41333C100.048 3.328 111.483 5.84 119.691 16.3307C121.536 18.688 122.085 22.1333 122.021 26.3787C121.952 30.6187 121.168 35.696 119.733 41.2587C116.949 52.032 111.691 64.592 104.283 75.8613C104.544 76.0472 104.827 76.2012 105.125 76.32C106.672 76.96 110.197 77.5093 117.232 76.064C119.003 75.6907 120.299 75.44 121.643 76.464C121.969 76.7408 122.227 77.0895 122.397 77.4828C122.566 77.876 122.642 78.3031 122.619 78.7307C122.547 79.378 122.308 79.9956 121.925 80.5227C120.565 82.5653 117.883 84.5013 114.443 86.096C111.397 87.5147 107.029 88.256 103.157 88.2987C101.216 88.32 99.4241 88.1707 97.9041 87.696L97.8081 87.6587C97.2214 93.312 95.8721 104.475 94.9921 109.568C94.2881 113.675 93.0561 116.939 90.7041 119.381C88.3574 121.824 85.0347 123.296 80.5654 124.256C75.0294 125.445 70.9921 124.165 68.3894 121.973C65.7921 119.787 64.6027 116.885 63.8881 115.109C63.3974 113.883 63.1414 112.293 62.8961 110.171C62.6507 108.048 62.4694 105.451 62.3467 102.523C62.1834 98.0393 62.13 93.5526 62.1867 89.0667C59.8742 91.1847 57.0006 92.5919 53.9094 93.12C50.2347 93.744 46.9547 93.1307 44.9974 92.64C44.0325 92.3977 43.1011 92.0376 42.2241 91.568C41.3174 91.0827 40.4534 90.5333 39.8774 89.4507C39.539 88.8306 39.4312 88.1106 39.5734 87.4187C39.7537 86.7172 40.1628 86.096 40.7361 85.6533C41.7921 84.7947 43.1894 84.3147 45.2961 83.8773C49.1307 83.088 50.4694 82.5493 51.2854 81.904C51.9787 81.3493 52.7627 80.2293 54.1494 78.5867C54.1428 78.5139 54.1375 78.441 54.1334 78.368C51.6517 78.2982 49.2215 77.644 47.0401 76.4587C46.2401 77.3013 42.1547 81.6213 37.1734 87.616C35.0774 90.1227 32.7627 91.5627 30.3201 91.664C27.8774 91.7707 25.6694 90.5387 23.7921 88.72C20.0427 85.0773 17.0507 78.8107 14.4427 71.728C11.8401 64.6453 9.72274 56.7573 8.21874 50.0373C6.70941 43.3173 5.81874 37.8987 5.69074 35.2853C5.13074 24.1813 7.72808 16.6987 12.1814 11.9787C16.6401 7.25867 22.7521 5.472 28.7094 5.13067C39.4027 4.51733 49.5574 8.24533 51.6107 9.04533C55.5681 6.35733 60.6667 4.68267 67.0347 4.78933C70.0579 4.83174 73.0661 5.22186 76.0001 5.952L76.1068 5.904C77.3981 5.45006 78.714 5.06902 80.0481 4.76267C83.6705 3.91762 87.374 3.46877 91.0934 3.424L91.0987 3.41333ZM91.9094 6.98667H91.1308C88.0752 7.02928 85.0312 7.37226 82.0427 8.01067C88.6881 10.9547 93.7067 15.488 97.2428 20.0107C99.699 23.1421 101.729 26.5854 103.28 30.2507C103.867 31.6587 104.261 32.848 104.485 33.7707C104.597 34.2347 104.672 34.624 104.699 35.0293C104.709 35.232 104.72 35.44 104.635 35.7973C104.635 35.8133 104.608 35.8507 104.603 35.8667C104.763 40.5387 103.605 43.7067 103.467 48.1653C103.36 51.3973 104.187 55.1947 104.389 59.3387C104.581 63.232 104.112 67.5093 101.584 71.7067C101.797 71.9627 101.989 72.2187 102.192 72.4747C108.88 61.9413 113.701 50.288 116.272 40.352C117.648 35.0027 118.379 30.1547 118.443 26.3147C118.496 22.4747 117.781 19.6907 116.869 18.528C109.712 9.376 100.027 7.05067 91.9094 6.98667ZM66.3627 8.352C60.0587 8.368 55.5361 10.272 52.1067 13.1253C48.5707 16.0747 46.1974 20.112 44.6401 24.2453C42.7894 29.152 42.1547 33.8987 41.9041 37.12L41.9734 37.0773C43.8774 36.0107 46.3787 34.944 49.0561 34.3253C51.7334 33.712 54.6187 33.52 57.2321 34.5333C59.8454 35.5467 62.0054 37.9307 62.7894 41.5467C66.5441 58.9173 61.6214 65.376 59.8081 70.2507C59.1202 72.0175 58.5308 73.8212 58.0427 75.6533C58.2721 75.6 58.5014 75.536 58.7307 75.5147C60.0107 75.408 61.0134 75.8347 61.6107 76.0907C63.4347 76.848 64.6881 78.4373 65.3654 80.2507C65.5414 80.7253 65.6694 81.2373 65.7441 81.7653C65.8229 81.9821 65.8591 82.2121 65.8507 82.4427C65.6485 89.0869 65.6717 95.736 65.9201 102.379C66.0427 105.248 66.2241 107.776 66.4534 109.771C66.6827 111.76 67.0081 113.275 67.2161 113.787C67.8987 115.493 68.8961 117.728 70.6987 119.248C72.5014 120.763 75.0881 121.776 79.8134 120.763C83.9094 119.883 86.4374 118.661 88.1281 116.907C89.8134 115.152 90.8214 112.709 91.4668 108.971C92.4321 103.371 94.3734 87.1307 94.6081 84.0747C94.5014 81.7707 94.8428 80 95.5788 78.6507C96.3361 77.264 97.5094 76.416 98.5228 75.9573C99.0294 75.728 99.5041 75.5733 99.8934 75.4613C99.4812 74.869 99.049 74.2909 98.5974 73.728C97.1364 71.9561 95.94 69.9818 95.0454 67.8667C94.617 66.9932 94.1598 66.134 93.6747 65.2907C92.9654 64.0107 92.0694 62.4107 91.1308 60.6133C89.2534 57.0133 87.2107 52.6507 86.1494 48.4C85.0934 44.1547 84.9388 39.76 87.6481 36.6613C90.0481 33.9093 94.2614 32.768 100.587 33.408C100.4 32.848 100.288 32.384 99.9734 31.6373C98.5434 28.2714 96.6767 25.1082 94.4214 22.2293C89.0614 15.376 80.3841 8.58133 66.9761 8.36267H66.3627V8.352ZM30.9387 8.62933C30.2614 8.62933 29.5841 8.65067 28.9121 8.688C23.5254 8.99733 18.4321 10.56 14.7894 14.4213C11.1414 18.2827 8.74141 24.6133 9.26408 35.0933C9.36541 37.0773 10.2294 42.6347 11.7121 49.2373C13.1894 55.84 15.2854 63.6107 17.8027 70.4747C20.3254 77.3387 23.3814 83.312 26.2827 86.1387C27.7441 87.552 29.0134 88.1227 30.1654 88.0747C31.3227 88.0213 32.7147 87.3547 34.4161 85.312C37.518 81.5703 40.7373 77.9276 44.0694 74.3893C41.7052 72.3366 39.8958 69.7216 38.8081 66.7856C37.7203 63.8496 37.3893 60.687 37.8454 57.5893C38.3947 53.648 38.4694 49.9627 38.4054 47.0507C38.3414 44.2133 38.1387 42.3253 38.1387 41.1467C38.1378 41.1129 38.1378 41.0791 38.1387 41.0453V41.0187L38.1334 40.9867C38.1302 34.8469 39.1987 28.7484 41.2907 22.976C42.7841 19.008 45.0081 14.976 48.3414 11.712C45.0667 10.6347 39.2534 8.992 32.9601 8.68267C32.2851 8.648 31.6146 8.63022 30.9387 8.62933ZM97.0614 36.8C93.4401 36.848 91.4081 37.7813 90.3414 39.0027C88.8321 40.736 88.6881 43.776 89.6268 47.52C90.5601 51.2693 92.4907 55.4613 94.3041 58.944C95.2107 60.688 96.0908 62.256 96.8001 63.5307C97.5147 64.8107 98.0374 65.7173 98.3574 66.4907C98.6507 67.2053 98.9761 67.8347 99.3068 68.4213C100.709 65.4613 100.96 62.5547 100.816 59.5253C100.629 55.776 99.7601 51.9413 99.8881 48.0587C100.032 43.52 100.928 40.5653 101.008 37.056C99.6993 36.8865 98.3811 36.801 97.0614 36.8ZM53.1467 37.4133C52.0405 37.4237 50.9387 37.556 49.8614 37.808C47.7144 38.3296 45.6464 39.1349 43.7121 40.2027C43.0578 40.5536 42.435 40.9605 41.8507 41.4187L41.7334 41.5253C41.7654 42.304 41.9201 44.192 41.9841 46.9707C42.0481 50.0107 41.9734 53.888 41.3867 58.0853C40.1121 67.2053 46.7307 74.7573 54.5067 74.768C54.9601 72.896 55.7067 70.9973 56.4534 68.9973C58.6187 63.1627 62.8801 58.9067 59.2907 42.2987C58.7041 39.5787 57.5414 38.48 55.9414 37.8613C55.0446 37.5442 54.0977 37.3924 53.1467 37.4133ZM95.3708 38.5013H95.6374C95.9894 38.512 96.3148 38.5493 96.5974 38.6187C96.8854 38.6827 97.1308 38.7787 97.3334 38.912C97.4374 38.9764 97.5267 39.0619 97.5956 39.1629C97.6645 39.264 97.7115 39.3783 97.7334 39.4987L97.7281 39.5413C97.7385 39.7945 97.6735 40.0451 97.5414 40.2613C97.3841 40.5541 97.1867 40.8233 96.9548 41.0613C96.4137 41.6571 95.6891 42.0551 94.8961 42.192C94.1244 42.2853 93.3454 42.0896 92.7094 41.6427C92.4491 41.4675 92.2155 41.2555 92.0161 41.0133C91.8435 40.823 91.7272 40.5885 91.6801 40.336C91.6689 40.213 91.6831 40.0889 91.7216 39.9715C91.7601 39.8541 91.8222 39.7459 91.9041 39.6533C92.0791 39.4545 92.291 39.2915 92.5281 39.1733C93.0401 38.8853 93.7334 38.672 94.5174 38.5547C94.8108 38.512 95.0987 38.4907 95.3708 38.4853V38.5013ZM53.6641 39.3973C53.9467 39.3973 54.2454 39.424 54.5494 39.4667C55.3654 39.5787 56.0907 39.7973 56.6454 40.1173C56.9159 40.2585 57.1567 40.4505 57.3547 40.6827C57.4626 40.8058 57.5438 40.9499 57.5933 41.1059C57.6429 41.262 57.6597 41.4265 57.6427 41.5893C57.5915 41.896 57.4526 42.1812 57.2427 42.4107C57.0245 42.6785 56.7675 42.9122 56.4801 43.104C55.7865 43.5954 54.9344 43.8103 54.0907 43.7067C53.2285 43.5649 52.4393 43.1365 51.8507 42.4907C51.6003 42.2306 51.3884 41.9361 51.2214 41.616C51.0456 41.3344 50.9687 41.0022 51.0027 40.672C51.0827 40.096 51.5574 39.7973 52.0214 39.632C52.5499 39.4631 53.1046 39.3908 53.6587 39.4187L53.6641 39.3973ZM101.984 78.56L101.968 78.5653C101.184 78.848 100.539 78.9653 99.9948 79.2053C99.4446 79.4171 98.9911 79.8232 98.7201 80.3467C98.3841 80.96 98.0961 82.048 98.1814 83.8987C98.4227 84.0648 98.6892 84.1909 98.9707 84.272C99.8827 84.5493 101.413 84.7307 103.12 84.704C106.523 84.6667 110.709 83.872 112.933 82.8373C114.758 81.9897 116.452 80.8852 117.963 79.5573C110.533 81.0933 106.331 80.6827 103.755 79.6213C103.115 79.3552 102.518 79.0011 101.984 78.56ZM59.1521 79.0613H59.0401C58.7574 79.088 58.3467 79.184 57.5521 80.064C55.6961 82.144 55.0454 83.4507 53.5147 84.672C51.9841 85.888 49.9947 86.5387 46.0214 87.3547C44.7627 87.6107 44.0427 87.8933 43.5627 88.1227C43.7174 88.2507 43.7014 88.2827 43.9361 88.4053C44.5174 88.7253 45.2641 89.008 45.8667 89.1627C47.5734 89.5893 50.3787 90.0853 53.3067 89.5893C56.2347 89.088 59.2801 87.6853 61.8774 84.0427C62.3254 83.4133 62.3734 82.4853 62.0054 81.488C61.6321 80.4907 60.8161 79.632 60.2401 79.392C59.8973 79.2266 59.5298 79.1185 59.1521 79.072V79.0613Z" fill="#000FD9"/>
</svg>
