<svg width="309" height="190" viewBox="0 0 309 190" fill="none" xmlns="http://www.w3.org/2000/svg">
<rect x="65" y="8.5" width="243" height="45" rx="19.5" stroke="#81ACFF"/>
<rect x="9" y="62.5" width="243" height="79" rx="19.5" stroke="#81ACFF"/>
<rect x="9" y="150.5" width="71" height="39" rx="19.5" stroke="#81ACFF"/>
<rect x="56.5" width="244" height="46" rx="16" fill="#D1D1D1"/>
<rect x="0.5" y="54" width="244" height="80" rx="16" fill="#000FD9"/>
<rect x="0.5" y="142" width="72" height="40" rx="16" fill="#000FD9"/>
<circle cx="20.5" cy="162" r="4" fill="#B0CEFF"/>
<circle cx="36.5" cy="162" r="4" fill="#B0CEFF"/>
<circle cx="52.5" cy="162" r="4" fill="#B0CEFF"/>
<rect x="12.5" y="66" width="72" height="8" rx="4" fill="#B0CEFF"/>
<rect x="88.5" y="66" width="72" height="8" rx="4" fill="#B0CEFF"/>
<rect x="164.5" y="66" width="52" height="8" rx="4" fill="#B0CEFF"/>
<rect x="32.5" y="122" width="20" height="8" rx="4" transform="rotate(-180 32.5 122)" fill="#B0CEFF"/>
<rect x="104.5" y="122" width="66" height="8" rx="4" transform="rotate(-180 104.5 122)" fill="#B0CEFF"/>
<rect x="12.5" y="82" width="20" height="8" rx="4" fill="#B0CEFF"/>
<rect x="38.5" y="82" width="66" height="8" rx="4" fill="#B0CEFF"/>
<rect x="110.5" y="82" width="92" height="8" rx="4" fill="#B0CEFF"/>
<rect x="84.5" y="98" width="20" height="8" rx="4" fill="#B0CEFF"/>
<rect x="12.5" y="98" width="66" height="8" rx="4" fill="#B0CEFF"/>
<rect x="110.5" y="98" width="92" height="8" rx="4" fill="#B0CEFF"/>
<rect x="68.5" y="10" width="72" height="8" rx="4" fill="#5D5D5D"/>
<rect x="144.5" y="10" width="72" height="8" rx="4" fill="#5D5D5D"/>
<rect x="220.5" y="10" width="52" height="8" rx="4" fill="#5D5D5D"/>
<rect x="68.5" y="26" width="20" height="8" rx="4" fill="#5D5D5D"/>
<rect x="94.5" y="26" width="66" height="8" rx="4" fill="#5D5D5D"/>
<rect x="166.5" y="26" width="92" height="8" rx="4" fill="#5D5D5D"/>
</svg>
