<svg width="774" height="1190" viewBox="0 0 774 1190" fill="none" xmlns="http://www.w3.org/2000/svg">
<path d="M1.07668 739.1C10.3689 627.048 73.7742 525.38 162.323 486.025C251.419 447.217 364.564 470.721 452.567 379.439C541.115 288.703 605.067 83.7292 701.815 21.9636C798.563 -39.802 928.107 41.6412 971.835 157.52C1014.47 273.399 969.648 423.166 972.928 553.257C976.207 683.347 1026.49 792.667 987.139 847.327C946.691 901.986 816.054 901.44 711.107 962.659C606.161 1023.88 526.904 1147.96 426.876 1180.2C326.849 1213.55 206.051 1155.06 122.421 1064.87C38.2453 974.137 -7.66888 851.699 1.07668 739.1Z" fill="#D1D1D1"/>
</svg>
