<svg width="185" height="1004" viewBox="0 0 185 1004" fill="none" xmlns="http://www.w3.org/2000/svg">
<path d="M-553.872 2.00973C-441.82 11.3019 -340.152 74.7073 -300.797 163.256C-261.989 252.352 -285.493 365.497 -194.211 453.5C-103.475 542.049 101.499 606.001 163.264 702.748C225.03 799.496 143.587 929.04 27.708 972.768C-88.1707 1015.4 -237.938 970.581 -368.029 973.861C-498.119 977.14 -607.439 1027.43 -662.098 988.072C-716.758 947.624 -716.212 816.987 -777.431 712.04C-838.65 607.094 -962.727 527.837 -994.977 427.809C-1028.32 327.782 -969.833 206.984 -879.645 123.354C-788.909 39.1784 -666.471 -6.73583 -553.872 2.00973Z" fill="#D1D1D1"/>
</svg>
